<?xml version="1.0" standalone="no"?>
<!DOCTYPE svg PUBLIC "-//W3C//DTD SVG 20010904//EN"
 "http://www.w3.org/TR/2001/REC-SVG-20010904/DTD/svg10.dtd">
<svg version="1.0" xmlns="http://www.w3.org/2000/svg"
 width="204.000000pt" height="192.000000pt" viewBox="0 0 204.000000 192.000000"
 preserveAspectRatio="xMidYMid meet">

<g transform="translate(0.000000,192.000000) scale(0.100000,-0.100000)"
fill="#000000" stroke="none">
<path d="M0 1365 l0 -345 244 0 c135 0 247 -3 249 -7 9 -17 -15 -192 -34 -251
-35 -105 -80 -141 -196 -157 l-53 -7 0 -197 0 -197 87 7 c184 15 315 63 402
148 65 64 96 115 131 221 55 161 62 250 64 710 l1 415 -447 3 -448 2 0 -345z"/>
<path d="M1147 1703 c-4 -3 -7 -159 -7 -345 l0 -338 247 0 246 0 -6 -93 c-11
-163 -59 -270 -135 -300 -20 -8 -61 -18 -89 -22 l-53 -7 0 -197 0 -197 93 8
c390 32 546 210 587 670 5 62 10 274 10 471 l0 357 -443 0 c-244 0 -447 -3
-450 -7z"/>
</g>
</svg>
